<?xml version="1.0" encoding="utf-8"?>
<!-- Generator: Adobe Illustrator 16.0.3, SVG Export Plug-In . SVG Version: 6.00 Build 0)  -->
<!DOCTYPE svg PUBLIC "-//W3C//DTD SVG 1.1//EN" "http://www.w3.org/Graphics/SVG/1.1/DTD/svg11.dtd">
<svg version="1.1" id="Capa_1" xmlns="http://www.w3.org/2000/svg" xmlns:xlink="http://www.w3.org/1999/xlink" x="0px" y="0px"
	 width="500px" height="500px" viewBox="500 0 500 500" enable-background="new 500 0 500 500" xml:space="preserve">
<g>
	<g>
		<g>
			<g>
				<circle fill="#3398C3" cx="739.035" cy="245.328" r="171.828"/>
				<g>
					<path fill="#999999" d="M915.055,284.898c-4.49,12.699-10.746,24.701-18.587,35.653c-0.183,0.255-0.364,0.505-0.548,0.757
						l-23.786-7.703c0.105-0.246,0.223-0.521,0.35-0.819c7.49-17.722,52.569-125.731,47.784-148.249
						C920.727,166.387,935.662,227.561,915.055,284.898z"/>
					<path fill="#999999" d="M901.057,322.037c-0.291,0.22-0.59,0.436-0.89,0.646l-17.846-5.776c0.212-0.2,0.458-0.433,0.747-0.693
						c4.672-4.368,18.549-17.448,31.985-31.315c14.444-14.901,28.388-30.709,29.869-37.583
						C944.646,248.883,935.845,296.604,901.057,322.037z"/>
					<path fill="#2F2E41" d="M927.938,395.372h-305.89c-5.665,0-10.258-4.593-10.258-10.258l0,0
						c110.885-12.888,219.685-12.888,326.404,0l0,0C938.196,390.779,933.604,395.372,927.938,395.372z"/>
					<path fill="#3F3D56" d="M938.196,385.719l-326.404-0.604l37.83-63.651l0.183-0.302v-140.28
						c-0.004-7.158,5.801-12.964,12.961-12.964h0.003h222.64c7.162-0.002,12.968,5.803,12.968,12.963v0.001v141.246L938.196,385.719
						z"/>
					<path fill="#FFFFFF" d="M662.475,176.966c-2.334,0.004-4.224,1.894-4.227,4.225v127.905c0.003,2.332,1.893,4.221,4.227,4.224
						h225.037c2.331-0.003,4.221-1.892,4.224-4.224V181.19c-0.003-2.331-1.893-4.221-4.224-4.225L662.475,176.966L662.475,176.966z"
						/>
					<path fill="#2F2E41" d="M663.951,330.213c-0.705,0-1.35,0.411-1.646,1.055l-11.656,25.338c-0.417,0.906-0.02,1.983,0.892,2.399
						c0.234,0.11,0.494,0.167,0.753,0.167h245.124c1,0,1.811-0.811,1.811-1.811c0-0.28-0.063-0.561-0.188-0.812l-12.673-25.338
						c-0.306-0.614-0.93-1.003-1.616-1L663.951,330.213L663.951,330.213z"/>
					<circle fill="#FFFFFF" cx="774.087" cy="172.139" r="2.714"/>
					<path fill="#2F2E41" d="M749.994,363.998c-0.819,0-1.532,0.551-1.746,1.338l-2.926,10.862
						c-0.262,0.964,0.313,1.957,1.274,2.218c0.153,0.04,0.316,0.063,0.473,0.063h55.604c1,0,1.811-0.811,1.811-1.809
						c0-0.202-0.033-0.404-0.101-0.595l-3.759-10.858c-0.253-0.729-0.939-1.219-1.713-1.219H749.994z"/>
					<polygon fill="#2F2E41" points="898.374,319.05 898.374,321.463 649.621,321.463 649.807,321.161 649.807,319.05 					"/>
					<path fill="#E6E6E6" d="M821.038,199.563h-58.693v1.073h58.693c6.015,0,10.892,4.877,10.892,10.895
						c0,6.018-4.877,10.896-10.892,10.896h-88.813c-6.018,0-10.896-4.878-10.896-10.896c0-6.018,4.878-10.895,10.896-10.895h3.317
						v-1.073h-3.317c-6.608,0-11.965,5.359-11.965,11.968c0,6.61,5.356,11.968,11.965,11.968h88.813
						c6.607,0.003,11.971-5.35,11.975-11.959c0.007-6.608-5.349-11.97-11.957-11.977
						C821.056,199.563,821.042,199.563,821.038,199.563L821.038,199.563z"/>
					<path fill="#E6E6E6" d="M821.038,236.549h-58.693v1.069h58.693c6.015,0,10.892,4.879,10.892,10.897
						s-4.877,10.895-10.892,10.895h-88.813c-6.018,0-10.896-4.877-10.896-10.895c0-6.019,4.878-10.897,10.896-10.897h3.317v-1.069
						h-3.317c-6.608,0-11.965,5.356-11.965,11.967c0,6.609,5.356,11.966,11.965,11.966h88.813c6.607,0,11.964-5.356,11.964-11.966
						C833.002,241.905,827.646,236.549,821.038,236.549z"/>
					<path fill="#E6E6E6" d="M821.038,273.532h-58.693v1.071h58.693c6.015-0.002,10.896,4.873,10.897,10.891
						c0.004,6.016-4.871,10.896-10.889,10.898c0,0-0.006,0-0.01,0h-88.813c-6.018-0.002-10.892-4.884-10.889-10.898
						c0.003-6.016,4.878-10.887,10.889-10.891h3.317v-1.071h-3.317c-6.607,0-11.965,5.356-11.965,11.966s5.355,11.967,11.965,11.967
						h88.813c6.607,0,11.964-5.355,11.964-11.967C833.002,278.889,827.646,273.532,821.038,273.532L821.038,273.532z"/>
					<path id="ab287899-84e3-434f-b92d-b2aaa12c9990" fill="#3F3D56" d="M742.172,196.732c-1.76,0.028-3.169,1.479-3.139,3.239
						c0.029,1.721,1.418,3.108,3.139,3.135h13.979c1.761,0.03,3.211-1.375,3.24-3.135c0.027-1.76-1.374-3.211-3.134-3.239l0,0
						c-0.037,0-0.074,0-0.106,0H742.172z"/>
					<path id="af2a4b37-a3ed-4662-953e-6f9b285406f1" fill="#3F3D56" d="M742.172,234.252c-1.76,0.029-3.169,1.479-3.139,3.238
						c0.029,1.72,1.418,3.107,3.139,3.136h13.979c1.761,0.028,3.211-1.374,3.24-3.134c0.027-1.762-1.374-3.211-3.134-3.24l0,0
						c-0.037,0-0.074,0-0.106,0H742.172z"/>
					<path id="ff7e389f-e1f1-4104-a8c8-8a888f7bdbd5" fill="#3F3D56" d="M742.172,270.7c-1.76,0.026-3.169,1.479-3.139,3.237
						c0.029,1.72,1.418,3.106,3.139,3.137h13.979c1.761,0.027,3.211-1.374,3.24-3.137c0.027-1.76-1.374-3.211-3.134-3.237
						c-0.037,0-0.074,0-0.106,0H742.172z"/>
					<path id="ab3f55ca-45f9-4d6f-a8ad-e44fa73330dd" fill="#F8DA14" d="M736.627,208.343c-1.762,0.031-3.165,1.48-3.137,3.24
						c0.026,1.72,1.411,3.107,3.137,3.137h79.904c1.765,0.027,3.216-1.375,3.241-3.135c0.03-1.761-1.374-3.211-3.136-3.242l0,0
						c-0.032,0-0.069,0-0.105,0H736.627z"/>
					<path id="b755e68c-1f13-420d-a9db-7573ff270e8f" fill="#F8DA14" d="M736.627,245.328c-1.762,0.027-3.165,1.479-3.137,3.239
						c0.026,1.72,1.415,3.108,3.137,3.135h79.904c1.765,0.028,3.216-1.375,3.241-3.135c0.03-1.761-1.374-3.212-3.136-3.239
						c-0.032,0-0.069,0-0.105,0H736.627z"/>
					<path id="f0f56a0b-ed67-4282-9bfe-4d2fc6a8304e" fill="#E6E6E6" d="M736.627,282.311c-1.762,0.031-3.165,1.479-3.137,3.238
						c0.026,1.721,1.415,3.108,3.137,3.135h79.904c1.765,0.03,3.216-1.373,3.241-3.135c0.03-1.758-1.374-3.207-3.136-3.238
						c-0.032,0-0.069,0-0.105,0H736.627z"/>
					<path fill="#F8DA14" d="M706.945,204.898c3.523,0,6.388,2.857,6.388,6.382c0,3.525-2.863,6.383-6.388,6.383
						c-3.525,0-6.382-2.857-6.382-6.383C700.563,207.756,703.419,204.898,706.945,204.898z"/>
					<polygon fill="#FFFFFF" points="706.354,213.902 704.494,211.512 705.576,210.671 706.458,211.804 709.434,208.662 
						710.426,209.605 					"/>
					<path fill="#F8DA14" d="M706.945,241.883c3.523,0,6.388,2.855,6.388,6.382c0,3.523-2.863,6.381-6.388,6.381
						c-3.525,0-6.382-2.857-6.382-6.381C700.563,244.738,703.419,241.883,706.945,241.883z"/>
					<polygon fill="#FFFFFF" points="706.354,250.887 704.494,248.496 705.576,247.654 706.458,248.786 709.434,245.646 
						710.426,246.59 					"/>
					<path fill="#E6E6E6" d="M706.945,278.865c3.523,0,6.388,2.859,6.388,6.383s-2.863,6.382-6.388,6.382
						c-3.525,0-6.382-2.856-6.382-6.382C700.563,281.725,703.419,278.865,706.945,278.865z"/>
					<path fill="#E6E6E6" d="M846.844,204.898c3.521,0,6.378,2.857,6.378,6.382c0,3.525-2.854,6.383-6.378,6.383
						c-3.53,0-6.386-2.857-6.386-6.383C840.458,207.756,843.313,204.898,846.844,204.898z"/>
					<path fill="#E6E6E6" d="M846.844,241.883c3.521,0,6.378,2.855,6.378,6.382c0,3.523-2.854,6.381-6.378,6.381
						c-3.53,0-6.386-2.857-6.386-6.381C840.458,244.738,843.313,241.883,846.844,241.883z"/>
					<path fill="#E6E6E6" d="M846.844,278.865c3.521,0,6.378,2.859,6.378,6.383s-2.854,6.382-6.378,6.382
						c-3.53,0-6.386-2.856-6.386-6.382C840.458,281.725,843.313,278.865,846.844,278.865z"/>
					<polygon fill="#FFFFFF" points="706.354,287.869 704.494,285.479 705.576,284.639 706.458,285.77 709.434,282.631 
						710.426,283.572 					"/>
					
						<rect x="846.379" y="208.78" transform="matrix(0.7035 -0.7107 0.7107 0.7035 100.884 664.4262)" fill="#FFFFFF" width="0.748" height="5.049"/>
					<polygon fill="#FFFFFF" points="844.884,212.8 848.453,209.229 848.981,209.762 845.413,213.332 					"/>
					
						<rect x="846.373" y="245.733" transform="matrix(0.7045 -0.7097 0.7097 0.7045 74.0284 674.3079)" fill="#FFFFFF" width="0.749" height="5.05"/>
					
						<rect x="844.413" y="247.888" transform="matrix(0.7072 -0.7071 0.7071 0.7072 72.4847 671.5365)" fill="#FFFFFF" width="5.049" height="0.749"/>
					
						<rect x="846.37" y="282.721" transform="matrix(0.7032 -0.711 0.711 0.7032 48.5131 686.7013)" fill="#FFFFFF" width="0.75" height="5.048"/>
					<polygon fill="#FFFFFF" points="844.884,286.768 848.453,283.197 848.981,283.73 845.413,287.298 					"/>
					<path fill="#F5B7B8" d="M708.175,282.689L708.175,282.689c2.121-1.403,2.706-4.264,1.301-6.385
						c-0.136-0.203-0.285-0.396-0.448-0.572l-6.126-6.68l-5.888,2.979l4.506,8.896c1.148,2.271,3.923,3.182,6.194,2.03
						C707.872,282.878,708.024,282.789,708.175,282.689z"/>
					<path fill="#F5B7B8" d="M628.97,302.525L628.97,302.525c2.526-0.293,4.34-2.582,4.047-5.11
						c-0.024-0.24-0.076-0.479-0.139-0.712l-2.451-8.727h-6.599v9.973c0,2.544,2.065,4.607,4.611,4.607
						C628.613,302.557,628.796,302.547,628.97,302.525z"/>
					<polygon fill="#F5B7B8" points="667.071,368.355 679.533,366.4 674.403,361.025 667.071,361.025 					"/>
					<path fill="#F5B7B8" d="M627.007,368.843l12.947,3.423c-2.386-4.949-3.854-9.326-2.933-12.216l-6.106-0.733L627.007,368.843z"
						/>
					<polygon fill="#565A88" points="629.692,360.538 637.268,362.004 658.031,295.061 666.828,361.758 674.891,361.758 
						674.16,267.453 642.887,267.453 					"/>
					<path fill="#565A88" d="M669.458,371.322l12.323-4.055c1.259-0.414,1.941-1.771,1.53-3.026c-0.037-0.11-0.083-0.22-0.133-0.323
						l0,0c-0.432-0.863-1.341-1.385-2.305-1.318l-2.796,0.189l-1.097-0.617c-0.309-0.173-0.698-0.063-0.87,0.242
						c-0.097,0.171-0.108,0.375-0.032,0.555l1.013,2.454l-10.266-0.733l-0.505,4.052c-0.165,1.317,0.769,2.521,2.087,2.683
						C668.762,371.468,669.119,371.434,669.458,371.322z"/>
					<path fill="#565A88" d="M627.8,373.186l13.399,0.869c1.367,0.088,2.548-0.947,2.637-2.314c0.01-0.12,0.007-0.241-0.003-0.359
						l0,0c-0.083-0.999-0.755-1.85-1.704-2.158l-2.756-0.899l-0.817-1.013c-0.225-0.285-0.641-0.332-0.927-0.104
						c-0.152,0.126-0.244,0.319-0.244,0.521l0.02,2.744l-9.566-4.666l-2.049,3.693c-0.667,1.2-0.232,2.715,0.97,3.38
						C627.076,373.057,627.435,373.163,627.8,373.186z"/>
					<circle fill="#F5B7B8" cx="656.324" cy="205.643" r="9.04"/>
					<path fill="#F5B7B8" d="M650.461,222.257h12.459v-11.971h-12.459C651.49,213.982,651.356,218.01,650.461,222.257z"/>
					<path fill="#F8DA14" d="M641.18,268.676l34.199,0.487l3.421-36.134c0-4.834-3.079-9.132-7.654-10.687l-5.293-1.797
						l-2.933-3.422c-3.699-0.799-7.73-0.606-11.971,0.244l-3.18,4.642l-3.42,1.094c-4.771,1.523-7.967,6.021-7.823,11.031
						C639.07,247.282,641.054,259.499,641.18,268.676z"/>
					<path fill="#F8DA14" d="M622.606,287.977l8.552,0.978l9.775-39.336l0.977-25.409l-0.288,0.141
						c-4.587,2.222-7.86,6.468-8.837,11.47L622.606,287.977z"/>
					<path fill="#F8DA14" d="M697.369,273.316l6.598-3.176l-19.35-36.103c-2.813-5.243-7.379-9.33-12.9-11.54l0,0l3.662,22.967
						L697.369,273.316z"/>
					<path fill="#2F2E41" d="M650.736,213.78c0,0,8.862-0.527,9.061-2.06c0.188-1.534,1.479-5.032,3.018-4.839
						c1.531,0.191,5.781-4.921,4.872-6.979c-0.914-2.061-5.204-9.646-13.974-6.151c-8.771,3.498-7.764,12.265-6.854,14.327
						C647.764,210.137,650.736,213.78,650.736,213.78z"/>
					<path fill="#F8DA14" d="M867.671,324.577c-0.199,0-0.375,0.136-0.425,0.326l-0.715,2.646c-0.063,0.233,0.072,0.474,0.31,0.539
						c0.039,0.011,0.08,0.015,0.116,0.015h13.542c0.241,0,0.438-0.197,0.438-0.441c0-0.047-0.007-0.096-0.023-0.145l-0.916-2.644
						c-0.061-0.178-0.229-0.298-0.415-0.298L867.671,324.577L867.671,324.577z"/>
					<path fill="#F8DA14" d="M847.899,324.577c-0.198,0-0.372,0.136-0.425,0.326l-0.714,2.646c-0.063,0.233,0.076,0.474,0.312,0.539
						c0.036,0.011,0.077,0.015,0.117,0.015h13.538c0.242,0,0.438-0.197,0.438-0.441c0-0.047-0.008-0.096-0.024-0.145l-0.912-2.644
						c-0.063-0.178-0.229-0.298-0.419-0.298L847.899,324.577L847.899,324.577z"/>
				</g>
			</g>
		</g>
	</g>
</g>
</svg>
